<svg width="533" height="431" viewBox="0 0 533 431" fill="none" xmlns="http://www.w3.org/2000/svg">
<path d="M75.0608 183.285H49.1549L44.2415 194.877H35.2148L57.8899 143.507H66.767L89.2028 194.877H79.9742L75.0608 183.285ZM71.7926 175.575L62.0705 152.758L52.3483 175.575H71.7926Z" fill="#9F8A63"/>
<path d="M123.5 155.906V161.538L101.191 187.959L124.158 188.034V194.929L90.7734 194.855V189.134L113.082 162.712H91.4316V155.816L123.5 155.906Z" fill="#9F8A63"/>
<path d="M153.963 194.877V190.106C151.173 193.561 146.694 195.244 141.047 195.244C132.604 195.244 127.324 190.009 127.324 183.136C127.324 176.016 132.679 171.469 142.072 171.395H153.888V170.221C153.888 165.3 150.732 162.368 144.57 162.368C140.831 162.368 136.934 163.692 133.045 166.332L129.598 160.461C135.027 157.23 138.991 155.54 146.402 155.54C156.453 155.54 162.107 160.678 162.182 169.263L162.257 194.877H153.963ZM153.888 181.154V177.557H143.321C137.817 177.557 135.244 179.053 135.244 182.792C135.244 186.314 138.108 188.588 142.805 188.588C148.825 188.566 153.447 185.41 153.888 181.154Z" fill="#9F8A63"/>
<path d="M208.93 140.425V194.876H200.494V188.198C197.704 192.753 193.015 195.243 186.771 195.243C175.553 195.243 168.074 187.099 168.074 175.208C168.074 163.466 175.635 155.472 186.644 155.472C192.956 155.472 197.652 158.037 200.516 162.584V140.425H208.93ZM200.494 175.507C200.494 167.946 195.573 162.659 188.528 162.659C181.483 162.659 176.562 168.021 176.495 175.507C176.57 182.918 181.409 188.22 188.528 188.22C195.648 188.22 200.494 182.918 200.494 175.507V175.507Z" fill="#9F8A63"/>
<path d="M229.039 144.681C229.011 145.648 228.699 146.585 228.141 147.376C227.583 148.166 226.805 148.775 225.903 149.125C225.001 149.476 224.016 149.553 223.071 149.347C222.126 149.14 221.263 148.66 220.589 147.966C219.915 147.272 219.461 146.394 219.283 145.443C219.105 144.492 219.212 143.51 219.589 142.619C219.967 141.728 220.598 140.968 221.405 140.435C222.212 139.901 223.158 139.617 224.126 139.618C224.787 139.607 225.443 139.732 226.054 139.984C226.665 140.237 227.218 140.612 227.678 141.086C228.138 141.56 228.497 142.124 228.731 142.743C228.965 143.361 229.07 144.02 229.039 144.681V144.681ZM228.291 155.839V194.877H219.945V155.839H228.291Z" fill="#9F8A63"/>
<path fill-rule="evenodd" clip-rule="evenodd" d="M123.852 61.3242L141.666 80.1927L145.427 85.4352L149.211 90.6927L144.567 86.2055L139.938 81.7333L123.852 61.3242Z" fill="#9F8A63"/>
<path fill-rule="evenodd" clip-rule="evenodd" d="M131.879 55.9326L144.488 78.6601L146.844 84.6729L149.214 90.6931L145.819 85.1889L142.424 79.6771L131.879 55.9326Z" fill="#9F8A63"/>
<path fill-rule="evenodd" clip-rule="evenodd" d="M141.062 52.9033L147.644 77.9491L148.429 84.3134L149.214 90.6926L147.285 84.5303L145.363 78.3605L141.062 52.9033Z" fill="#9F8A63"/>
<path fill-rule="evenodd" clip-rule="evenodd" d="M150.799 52.4404L150.911 78.0995L150.059 84.389L149.213 90.6934L148.892 84.2992L148.57 77.8976L150.799 52.4404Z" fill="#9F8A63"/>
<path fill-rule="evenodd" clip-rule="evenodd" d="M160.436 54.5938L154.042 79.1235L151.634 84.9045L149.211 90.6929L150.52 84.5081L151.821 78.3158L160.436 54.5938Z" fill="#9F8A63"/>
<path fill-rule="evenodd" clip-rule="evenodd" d="M169.328 59.2148L156.862 80.9252L153.04 85.8087L149.211 90.6922L152.045 85.1356L154.895 79.5716L169.328 59.2148Z" fill="#9F8A63"/>
<path fill-rule="evenodd" clip-rule="evenodd" d="M176.822 65.9609L159.15 83.401L154.184 87.0431L149.211 90.6926L153.391 86.1307L157.565 81.5762L176.822 65.9609Z" fill="#9F8A63"/>
<path fill-rule="evenodd" clip-rule="evenodd" d="M182.453 74.4189L160.773 86.3772L154.984 88.531L149.211 90.6924L154.461 87.4541L159.696 84.2084L182.453 74.4189Z" fill="#9F8A63"/>
<path fill-rule="evenodd" clip-rule="evenodd" d="M185.804 83.9697L161.603 89.6385L155.411 90.177L149.211 90.693L155.149 88.9804L161.094 87.2902L185.804 83.9697Z" fill="#9F8A63"/>
<path fill-rule="evenodd" clip-rule="evenodd" d="M186.664 93.9832L161.588 92.9736L155.396 91.8368L149.211 90.6926L155.448 90.6253L161.685 90.5879L186.664 93.9832Z" fill="#9F8A63"/>
<path fill-rule="evenodd" clip-rule="evenodd" d="M184.981 103.772L160.72 96.1592L154.969 93.4296L149.211 90.6924L155.313 92.2928L161.423 93.9082L184.981 103.772Z" fill="#9F8A63"/>
<path fill-rule="evenodd" clip-rule="evenodd" d="M180.853 112.664L159.083 98.9712L154.147 94.8355L149.211 90.6924L154.768 93.8483L160.317 96.9968L180.853 112.664Z" fill="#9F8A63"/>
<path fill-rule="evenodd" clip-rule="evenodd" d="M174.563 120.053L156.764 101.215L152.988 95.9573L149.211 90.6924L153.848 95.187L158.484 99.6742L174.563 120.053Z" fill="#9F8A63"/>
<path fill-rule="evenodd" clip-rule="evenodd" d="M166.554 125.46L153.922 102.725L151.567 96.7201L149.211 90.6924L152.614 96.2116L156.002 101.731L166.554 125.46Z" fill="#9F8A63"/>
<path fill-rule="evenodd" clip-rule="evenodd" d="M157.363 128.497L150.774 103.451L149.974 97.0716L149.211 90.6924L151.14 96.8622L153.047 103.025L157.363 128.497Z" fill="#9F8A63"/>
<path fill-rule="evenodd" clip-rule="evenodd" d="M147.612 128.945L147.5 103.286L148.353 96.9819L149.213 90.6924L149.527 97.0941L149.841 103.488L147.612 128.945Z" fill="#9F8A63"/>
<path fill-rule="evenodd" clip-rule="evenodd" d="M137.973 126.792L144.367 102.262L146.782 96.4733L149.213 90.6924L147.904 96.8996L146.595 103.084L137.973 126.792Z" fill="#9F8A63"/>
<path fill-rule="evenodd" clip-rule="evenodd" d="M129.102 122.192L141.546 100.467L145.382 95.5759L149.212 90.6924L146.362 96.249L143.52 101.828L129.102 122.192Z" fill="#9F8A63"/>
<path fill-rule="evenodd" clip-rule="evenodd" d="M121.594 115.417L139.251 97.9691L144.231 94.3345L149.212 90.6924L145.024 95.2468L140.836 99.8013L121.594 115.417Z" fill="#9F8A63"/>
<path fill-rule="evenodd" clip-rule="evenodd" d="M115.973 106.988L137.646 95.0225L143.427 92.8537L149.215 90.6924L143.965 93.9381L138.715 97.1763L115.973 106.988Z" fill="#9F8A63"/>
<path fill-rule="evenodd" clip-rule="evenodd" d="M112.605 97.4156L136.814 91.7543L143.013 91.2308L149.213 90.6924L143.268 92.3975L137.315 94.0951L112.605 97.4156Z" fill="#9F8A63"/>
<path fill-rule="evenodd" clip-rule="evenodd" d="M111.746 87.4023L136.822 88.412L143.022 89.5562L149.214 90.6929L142.962 90.7378L136.725 90.8051L111.746 87.4023Z" fill="#9F8A63"/>
<path fill-rule="evenodd" clip-rule="evenodd" d="M113.445 77.6279L137.691 85.2262L143.457 87.9559L149.215 90.693L143.09 89.0926L136.995 87.4847L113.445 77.6279Z" fill="#9F8A63"/>
<path fill-rule="evenodd" clip-rule="evenodd" d="M117.578 68.7363L139.341 82.4371L144.284 86.5653L149.213 90.6935L143.641 87.5375L138.092 84.389L117.578 68.7363Z" fill="#9F8A63"/>
<path fill-rule="evenodd" clip-rule="evenodd" d="M136.111 54.3772C136.571 54.1796 137.09 54.1699 137.557 54.3503C138.023 54.5306 138.401 54.8866 138.609 55.3419C138.725 55.5616 138.797 55.8022 138.82 56.0498C138.843 56.2974 138.816 56.5471 138.742 56.7844C138.668 57.0217 138.547 57.2418 138.386 57.4319C138.226 57.6221 138.03 57.7785 137.809 57.8921C137.353 58.0993 136.834 58.119 136.364 57.9469C135.894 57.7748 135.51 57.4247 135.296 56.9723C135.17 56.7503 135.092 56.5048 135.065 56.2512C135.038 55.9976 135.064 55.7412 135.14 55.4979C135.217 55.2546 135.342 55.0296 135.509 54.8368C135.676 54.644 135.881 54.4876 136.111 54.3772V54.3772Z" fill="#9F8A63"/>
<path fill-rule="evenodd" clip-rule="evenodd" d="M145.572 52.5292C146.075 52.4496 146.588 52.5669 147.006 52.8567C147.424 53.1465 147.714 53.5864 147.816 54.0848C147.875 54.3256 147.885 54.576 147.845 54.8209C147.806 55.0658 147.717 55.3 147.584 55.5096C147.451 55.7192 147.277 55.8998 147.073 56.0405C146.869 56.1812 146.638 56.2791 146.395 56.3284C145.893 56.4101 145.38 56.2946 144.961 56.006C144.543 55.7174 144.253 55.2782 144.151 54.7803C144.092 54.539 144.082 54.2881 144.121 54.0428C144.161 53.7974 144.25 53.5626 144.383 53.3525C144.515 53.1423 144.689 52.961 144.894 52.8196C145.098 52.6781 145.329 52.5794 145.572 52.5292Z" fill="#9F8A63"/>
<path fill-rule="evenodd" clip-rule="evenodd" d="M155.309 53.2924C155.81 53.3451 156.273 53.5856 156.605 53.9657C156.937 54.3459 157.112 54.8374 157.096 55.3415C157.092 55.5886 157.037 55.8321 156.934 56.0569C156.832 56.2817 156.684 56.4829 156.5 56.6479C156.316 56.8128 156.1 56.9381 155.865 57.0157C155.631 57.0933 155.383 57.1217 155.137 57.099C154.632 57.0462 154.167 56.8035 153.835 56.4202C153.503 56.0369 153.329 55.5416 153.349 55.0349C153.357 54.7898 153.415 54.549 153.52 54.327C153.624 54.105 153.772 53.9065 153.955 53.7436C154.139 53.5806 154.353 53.4566 154.586 53.379C154.818 53.3015 155.064 53.272 155.309 53.2924Z" fill="#9F8A63"/>
<path fill-rule="evenodd" clip-rule="evenodd" d="M164.626 56.5975C165.111 56.7741 165.509 57.1303 165.739 57.5924C165.969 58.0546 166.012 58.5873 165.86 59.0804C165.786 59.3151 165.666 59.5322 165.505 59.7185C165.344 59.9047 165.147 60.0561 164.926 60.1633C164.704 60.2705 164.463 60.3312 164.218 60.3418C163.972 60.3523 163.727 60.3124 163.497 60.2246C163.02 60.0408 162.63 59.6836 162.406 59.2245C162.181 58.7655 162.138 58.2386 162.285 57.7492C162.359 57.5171 162.479 57.3024 162.638 57.1178C162.797 56.9333 162.992 56.7827 163.211 56.6752C163.429 56.5676 163.667 56.5053 163.91 56.492C164.154 56.4786 164.397 56.5145 164.626 56.5975V56.5975Z" fill="#9F8A63"/>
<path fill-rule="evenodd" clip-rule="evenodd" d="M172.904 62.2372C173.323 62.5232 173.615 62.9597 173.719 63.4557C173.824 63.9518 173.733 64.469 173.465 64.8996C173.333 65.1071 173.159 65.2852 172.955 65.4228C172.751 65.5604 172.521 65.6545 172.279 65.6994C172.037 65.7443 171.788 65.739 171.548 65.6837C171.309 65.6284 171.083 65.5244 170.885 65.3782C170.464 65.0905 170.17 64.6531 170.061 64.1554C169.953 63.6577 170.039 63.1373 170.301 62.7009C170.438 62.4947 170.615 62.3183 170.821 62.1826C171.028 62.0468 171.26 61.9545 171.503 61.9111C171.747 61.8677 171.996 61.8743 172.237 61.9303C172.478 61.9864 172.705 62.0908 172.904 62.2372V62.2372Z" fill="#9F8A63"/>
<path fill-rule="evenodd" clip-rule="evenodd" d="M179.554 69.7901C179.895 70.1656 180.075 70.6611 180.052 71.1684C180.03 71.6756 179.808 72.1534 179.434 72.4973C179.248 72.6608 179.031 72.7849 178.795 72.862C178.56 72.9391 178.311 72.9677 178.065 72.946C177.818 72.9244 177.578 72.8529 177.36 72.7359C177.141 72.6189 176.949 72.4589 176.794 72.2655C176.458 71.8908 176.281 71.3995 176.302 70.8965C176.323 70.3935 176.54 69.9186 176.906 69.5732C177.093 69.4106 177.31 69.2871 177.546 69.2098C177.781 69.1326 178.029 69.1032 178.276 69.1234C178.523 69.1436 178.763 69.213 178.982 69.3275C179.202 69.442 179.396 69.5993 179.554 69.7901V69.7901Z" fill="#9F8A63"/>
<path fill-rule="evenodd" clip-rule="evenodd" d="M184.155 78.7947C184.272 79.0145 184.344 79.2556 184.367 79.5038C184.39 79.752 184.363 80.0023 184.288 80.2399C184.213 80.4775 184.091 80.6976 183.929 80.8874C183.767 81.0771 183.57 81.2327 183.347 81.3449C183.007 81.5333 182.618 81.6152 182.23 81.5802C181.843 81.5451 181.475 81.3947 181.174 81.1482C180.873 80.9018 180.652 80.5708 180.542 80.1979C180.431 79.825 180.434 79.4274 180.552 79.0566C180.669 78.6857 180.895 78.3586 181.2 78.1175C181.506 77.8765 181.876 77.7325 182.264 77.7043C182.652 77.6761 183.04 77.765 183.377 77.9593C183.714 78.1537 183.985 78.4447 184.155 78.7947V78.7947Z" fill="#9F8A63"/>
<path fill-rule="evenodd" clip-rule="evenodd" d="M186.352 88.6061C186.41 88.8464 186.42 89.096 186.38 89.34C186.34 89.5841 186.252 89.8177 186.12 90.0269C185.988 90.2362 185.816 90.4168 185.613 90.5581C185.41 90.6995 185.181 90.7986 184.939 90.8497C184.436 90.9293 183.923 90.812 183.505 90.5222C183.087 90.2324 182.797 89.7925 182.695 89.2941C182.632 89.0526 182.62 88.8008 182.659 88.5543C182.698 88.3078 182.787 88.072 182.921 87.8615C183.055 87.651 183.231 87.4704 183.438 87.3309C183.645 87.1914 183.878 87.0959 184.123 87.0505C184.624 86.9694 185.137 87.0864 185.553 87.3767C185.969 87.6671 186.256 88.108 186.352 88.6061V88.6061Z" fill="#9F8A63"/>
<path fill-rule="evenodd" clip-rule="evenodd" d="M186.022 98.5446C186.021 98.7911 185.969 99.0346 185.868 99.2595C185.768 99.4845 185.621 99.6858 185.438 99.8507C185.255 100.016 185.039 100.14 184.805 100.217C184.57 100.293 184.323 100.32 184.078 100.295C183.571 100.242 183.104 99.9983 182.771 99.6136C182.437 99.2289 182.263 98.7317 182.283 98.2231C182.289 97.9777 182.345 97.7362 182.448 97.5133C182.551 97.2905 182.699 97.091 182.881 96.9272C183.064 96.7633 183.278 96.6385 183.511 96.5604C183.744 96.4823 183.99 96.4526 184.235 96.4731C184.74 96.5259 185.207 96.7697 185.539 97.1546C185.871 97.5395 186.044 98.0367 186.022 98.5446V98.5446Z" fill="#9F8A63"/>
<path fill-rule="evenodd" clip-rule="evenodd" d="M183.228 107.968C183.158 108.203 183.04 108.422 182.881 108.609C182.722 108.796 182.526 108.948 182.305 109.055C182.084 109.162 181.843 109.221 181.598 109.23C181.352 109.239 181.108 109.196 180.88 109.105C180.4 108.931 180.005 108.58 179.776 108.123C179.548 107.667 179.504 107.14 179.653 106.652C179.725 106.418 179.845 106.202 180.003 106.017C180.162 105.831 180.357 105.68 180.576 105.573C180.796 105.466 181.035 105.405 181.278 105.394C181.522 105.382 181.766 105.421 181.994 105.507C182.474 105.684 182.869 106.037 183.098 106.494C183.327 106.951 183.374 107.478 183.228 107.968V107.968Z" fill="#9F8A63"/>
<path fill-rule="evenodd" clip-rule="evenodd" d="M178.051 116.21C177.916 116.415 177.741 116.59 177.536 116.725C177.332 116.86 177.102 116.952 176.861 116.996C176.62 117.04 176.373 117.035 176.134 116.981C175.895 116.927 175.669 116.825 175.471 116.682C175.049 116.395 174.753 115.957 174.646 115.458C174.539 114.96 174.628 114.439 174.895 114.004C175.026 113.796 175.2 113.617 175.404 113.479C175.608 113.34 175.838 113.246 176.08 113.201C176.322 113.156 176.571 113.162 176.811 113.217C177.051 113.273 177.277 113.378 177.475 113.526C177.896 113.815 178.19 114.254 178.298 114.753C178.405 115.253 178.316 115.774 178.051 116.21V116.21Z" fill="#9F8A63"/>
<path fill-rule="evenodd" clip-rule="evenodd" d="M170.938 122.709C170.749 122.868 170.53 122.987 170.294 123.061C170.059 123.135 169.811 123.161 169.565 123.139C169.319 123.117 169.08 123.046 168.861 122.931C168.642 122.817 168.449 122.66 168.291 122.47C167.952 122.095 167.772 121.602 167.79 121.097C167.808 120.591 168.023 120.113 168.388 119.763C168.576 119.6 168.796 119.476 169.033 119.399C169.27 119.322 169.52 119.294 169.768 119.316C170.016 119.337 170.258 119.408 170.478 119.525C170.698 119.642 170.893 119.801 171.05 119.995C171.388 120.373 171.565 120.868 171.544 121.375C171.523 121.881 171.306 122.36 170.938 122.709V122.709Z" fill="#9F8A63"/>
<path fill-rule="evenodd" clip-rule="evenodd" d="M162.339 127.01C161.882 127.22 161.361 127.242 160.888 127.071C160.415 126.901 160.028 126.551 159.811 126.097C159.694 125.878 159.622 125.637 159.598 125.389C159.575 125.141 159.601 124.891 159.674 124.653C159.748 124.415 159.868 124.194 160.028 124.003C160.187 123.812 160.383 123.655 160.604 123.54C161.062 123.328 161.586 123.307 162.059 123.481C162.533 123.655 162.919 124.009 163.132 124.467C163.249 124.685 163.322 124.925 163.346 125.172C163.37 125.419 163.344 125.668 163.27 125.905C163.197 126.142 163.076 126.362 162.916 126.551C162.756 126.741 162.56 126.897 162.339 127.01V127.01Z" fill="#9F8A63"/>
<path fill-rule="evenodd" clip-rule="evenodd" d="M152.849 128.849C152.346 128.938 151.829 128.826 151.409 128.536C150.989 128.246 150.7 127.802 150.605 127.301C150.54 127.059 150.526 126.808 150.563 126.561C150.601 126.314 150.689 126.077 150.823 125.866C150.956 125.656 151.132 125.475 151.339 125.335C151.547 125.196 151.78 125.101 152.026 125.057C152.528 124.965 153.045 125.076 153.466 125.364C153.886 125.653 154.175 126.096 154.27 126.598C154.336 126.839 154.351 127.092 154.314 127.34C154.278 127.587 154.189 127.825 154.056 128.036C153.922 128.248 153.746 128.43 153.538 128.57C153.33 128.71 153.095 128.805 152.849 128.849V128.849Z" fill="#9F8A63"/>
<path fill-rule="evenodd" clip-rule="evenodd" d="M143.11 128.087C142.606 128.036 142.14 127.793 141.809 127.409C141.478 127.025 141.307 126.529 141.33 126.023C141.334 125.777 141.389 125.535 141.491 125.312C141.593 125.089 141.739 124.889 141.922 124.724C142.104 124.56 142.318 124.435 142.551 124.358C142.784 124.28 143.03 124.251 143.275 124.273C143.779 124.325 144.244 124.568 144.576 124.951C144.908 125.335 145.082 125.83 145.062 126.337C145.059 126.583 145.005 126.826 144.903 127.051C144.801 127.275 144.654 127.476 144.47 127.64C144.287 127.805 144.071 127.929 143.837 128.006C143.603 128.083 143.355 128.11 143.11 128.087V128.087Z" fill="#9F8A63"/>
<path fill-rule="evenodd" clip-rule="evenodd" d="M146.007 86.9832C146.482 86.5693 147.036 86.2553 147.636 86.0601C148.235 85.8648 148.868 85.7922 149.496 85.8466C150.124 85.9011 150.735 86.0814 151.292 86.3769C151.848 86.6724 152.34 87.077 152.737 87.5665C153.59 88.5175 154.036 89.7641 153.982 91.0399C153.927 92.3158 153.376 93.5197 152.446 94.3945C151.973 94.8043 151.422 95.1149 150.827 95.3079C150.231 95.5008 149.603 95.5722 148.979 95.5178C148.356 95.4634 147.75 95.2843 147.196 94.9911C146.643 94.698 146.155 94.2967 145.76 93.8112C144.905 92.8643 144.453 91.6218 144.499 90.3472C144.545 89.0725 145.086 87.866 146.007 86.9832Z" fill="#9F8A63"/>
<path fill-rule="evenodd" clip-rule="evenodd" d="M177.79 65.1011C166.093 51.5499 147.83 47.5414 132.918 53.9431V57.2336C146.933 50.5029 164.523 54.0478 175.681 66.9558C189.142 82.5113 188.14 105.747 173.519 118.835C162.159 129.006 145.901 130.053 132.918 122.694V125.992C146.701 133.119 163.58 131.72 175.449 121.071C191.251 106.944 192.291 81.8906 177.79 65.1011Z" fill="#9F8A63"/>
<path d="M278.698 212.497L265.191 194.353L258.199 202.049V212.519H251.281V171.387H258.206V192.648L277.823 171.394H285.982L270.067 188.954L287.044 212.497H278.698Z" fill="#9F8A63"/>
<path d="M310.279 212.498V208.654C308.035 211.413 304.468 212.767 299.943 212.767C293.213 212.767 288.965 208.594 288.965 203.045C288.965 197.346 293.25 193.711 300.766 193.651H310.219V192.709C310.219 188.775 307.699 186.427 302.74 186.427C299.417 186.528 296.202 187.634 293.519 189.598L290.767 184.902C295.112 182.314 298.283 180.968 304.229 180.968C312.268 180.968 316.793 185.074 316.853 191.946L316.912 212.438L310.279 212.498ZM310.219 201.519V198.647H301.768C297.363 198.647 295.307 199.814 295.307 202.813C295.307 205.632 297.595 207.449 301.357 207.449C306.173 207.449 309.868 204.914 310.219 201.519Z" fill="#9F8A63"/>
<path d="M198.78 223.123L215.734 257.263L232.583 223.123H242.784V274.464H234.827L234.759 236.083L218.523 269.131H212.87L196.686 236.113V274.464H188.512V223.123H198.78Z" fill="#9F8A63"/>
<path d="M277.455 274.464V269.693C274.673 273.141 270.193 274.831 264.54 274.831C256.104 274.831 250.816 269.596 250.816 262.723C250.816 255.603 256.179 251.049 265.572 250.982H277.388V249.807C277.388 244.887 274.232 241.955 268.062 241.955C264.323 241.955 260.434 243.271 256.545 245.919L253.097 240.063C258.527 236.84 262.49 235.149 269.902 235.149C279.953 235.149 285.607 240.287 285.674 248.873L285.749 274.487L277.455 274.464ZM277.388 260.741V257.144H266.821C261.316 257.144 258.744 258.64 258.744 262.379C258.744 265.901 261.608 268.175 266.305 268.175C272.325 268.182 276.947 265.026 277.388 260.771V260.741Z" fill="#9F8A63"/>
<path d="M333.013 250.204V274.465H324.569V252.552C324.569 246.682 321.047 243.085 315.176 243.085C308.206 243.159 304.018 248.364 304.018 255.267V274.465H295.59V220.043H304.026V243.055C306.815 237.55 311.803 235.127 318.482 235.127C327.561 235.157 333.013 240.878 333.013 250.204Z" fill="#9F8A63"/>
<path d="M379.545 254.901C379.545 266.717 371.251 274.786 359.218 274.786C347.185 274.786 338.816 266.717 338.816 254.901C338.816 243.085 347.11 235.157 359.218 235.157C371.326 235.157 379.545 243.159 379.545 254.901ZM347.26 255.043C347.26 262.604 352.173 267.756 359.225 267.756C366.278 267.756 371.116 262.619 371.116 255.043C371.116 247.467 366.196 242.329 359.225 242.329C352.255 242.329 347.26 247.542 347.26 255.02V255.043Z" fill="#9F8A63"/>
<path d="M408.614 271.997C405.728 273.806 402.403 274.797 398.997 274.861C393.126 274.861 388.063 271.48 388.063 263.486V243.226H382.559V236.922H388.063V226.205H396.431V236.922H407.948V243.226H396.431V261.923C396.431 265.954 397.972 267.203 400.612 267.203C402.672 267.094 404.68 266.516 406.483 265.513L408.614 271.997Z" fill="#9F8A63"/>
<path d="M425.569 241.835C422.263 241.835 419.84 242.935 419.84 245.724C419.84 252.918 440.608 249.03 440.541 263.187C440.541 271.189 433.422 274.786 425.584 274.786C419.855 274.786 413.768 272.879 409.879 269.356L412.87 263.336C416.557 266.373 421.16 268.08 425.935 268.182C429.533 268.182 432.322 266.933 432.322 264.002C432.322 256 411.771 260.472 411.846 246.382C411.846 238.462 418.741 235.082 426.227 235.082C431.148 235.082 436.353 236.578 439.876 239.046L436.794 245.298C433.416 243.191 429.548 241.997 425.569 241.835V241.835Z" fill="#9F8A63"/>
<path d="M470.627 274.464V269.693C467.838 273.141 463.365 274.831 457.712 274.831C449.276 274.831 443.988 269.596 443.988 262.723C443.988 255.603 449.343 251.049 458.744 250.982H470.552V249.807C470.552 244.887 467.396 241.955 461.234 241.955C457.495 241.955 453.606 243.271 449.717 245.919L446.262 240.063C451.691 236.84 455.655 235.149 463.066 235.149C473.125 235.149 478.771 240.287 478.846 248.873L478.921 274.487L470.627 274.464ZM470.552 260.741V257.144H459.985C454.481 257.144 451.916 258.64 451.916 262.379C451.916 265.901 454.78 268.175 459.476 268.175C465.489 268.182 470.118 265.026 470.552 260.771V260.741Z" fill="#9F8A63"/>
<path d="M489.846 235.448L500.719 266.238L511.436 235.486H519.872L504.915 274.531H496.173L481.051 235.486L489.846 235.448Z" fill="#9F8A63"/>
<path d="M44.1238 244.445H23.4081L19.4444 253.726H12.25L30.3931 212.594H37.4977L55.4464 253.726H48.0425L44.1238 244.445ZM41.4838 238.283L33.736 220.02L25.9882 238.283H41.4838Z" fill="#9F8A63"/>
<path d="M111.245 234.29V253.734H104.514V236.167C104.514 231.41 101.695 228.531 97.1182 228.531C91.771 228.711 88.5477 232.824 88.5477 238.253V253.697H81.817V236.167C81.817 231.41 79.0574 228.531 74.473 228.531C69.0734 228.711 65.7829 232.824 65.7829 238.253V253.697H59.082V222.488H65.8128V228.531C67.989 224.134 71.9751 222.249 77.1428 222.249C82.7219 222.249 86.5434 225.009 88.0092 229.765C90.006 224.53 94.1716 222.249 99.8703 222.249C106.945 222.249 111.245 226.833 111.245 234.29Z" fill="#9F8A63"/>
<path d="M136.369 222.249V228.711C130.087 228.359 126.094 232.061 125.563 237.401V253.726H118.832V222.488H125.563V228.711C127.679 224.485 131.433 222.249 136.369 222.249Z" fill="#9F8A63"/>
<path d="M147.76 213.559C147.738 214.332 147.489 215.081 147.044 215.713C146.598 216.345 145.976 216.832 145.256 217.112C144.535 217.393 143.748 217.455 142.993 217.291C142.237 217.127 141.547 216.743 141.008 216.189C140.469 215.635 140.105 214.934 139.962 214.174C139.819 213.414 139.904 212.629 140.204 211.917C140.505 211.204 141.009 210.597 141.653 210.169C142.298 209.742 143.054 209.513 143.827 209.513C144.355 209.505 144.879 209.606 145.367 209.808C145.855 210.01 146.297 210.31 146.665 210.688C147.034 211.067 147.321 211.517 147.509 212.011C147.697 212.504 147.783 213.031 147.76 213.559ZM147.17 222.488V253.727H140.476V222.488H147.17Z" fill="#9F8A63"/>
<path d="M173.362 251.729C171.055 253.175 168.397 253.966 165.674 254.018C160.97 254.018 156.924 251.318 156.924 244.916V228.71H152.52V223.662H156.924V215.084H163.618V223.662H172.839V228.71H163.618V243.667C163.618 246.898 164.852 247.893 166.961 247.893C168.608 247.807 170.215 247.347 171.657 246.546L173.362 251.729Z" fill="#9F8A63"/>
<path fill-rule="evenodd" clip-rule="evenodd" d="M422.376 43.5476C420.192 42.4857 418.555 43.3233 417.059 43.9963C402.85 50.3905 388.64 50.1288 373.765 45.8136C361.859 42.366 349.707 39.3372 337.285 38.2752C314.984 36.3906 295.031 44.1085 275.699 53.883C267.255 58.1533 258.954 62.7227 249.658 64.8167C241.432 66.6714 238.365 63.5304 239.936 55.2367C241.237 48.2442 239.667 45.4322 232.936 43.084C231.113 42.4486 229.228 42.0074 227.312 41.7677C203.381 38.8511 179.973 42.2463 156.819 47.96L154.949 48.8275C154.949 48.8275 181.124 47.1149 192.484 70.0966C206.866 67.9353 221.307 68.5186 235.778 70.5304C241.671 71.353 244.004 74.4791 241.821 80.4844C240.978 82.9207 240.462 85.4582 240.287 88.0303C239.689 95.8305 243.159 98.7995 250.757 97.0644C253.28 96.5451 255.734 95.7371 258.072 94.6563C268.489 89.5858 278.967 84.65 288.607 78.0987C298.852 71.1362 309.951 66.5593 322.537 65.2281C339.259 63.4631 355.996 64.7794 372.703 64.0539C387.16 63.4183 401.489 61.8627 413.753 53.038C417.194 50.5401 421.105 48.2143 422.376 43.5476Z" fill="#F08700"/>
<path fill-rule="evenodd" clip-rule="evenodd" d="M422.375 96.4744C420.191 95.4124 418.554 96.25 417.058 96.9231C402.848 103.317 388.639 103.056 373.764 98.7404C361.858 95.2853 349.706 92.2565 337.246 91.202C314.945 89.3174 294.992 97.0353 275.66 106.81C267.217 111.073 258.915 115.65 249.62 117.744C241.393 119.598 238.327 116.457 239.897 108.163C241.199 101.171 239.628 98.359 232.897 96.0107C231.075 95.3729 229.19 94.9292 227.274 94.687C217.42 93.5305 207.478 93.3201 197.584 94.0588C197.225 97.7981 194.547 116.869 176.883 126.411C179.037 125.835 181.198 125.267 183.367 124.758C200.74 120.66 218.217 121.019 235.717 123.457C241.61 124.28 243.943 127.406 241.76 133.411C240.916 135.847 240.4 138.385 240.226 140.957C239.628 148.75 243.098 151.726 250.697 149.991C253.219 149.459 255.673 148.641 258.011 147.553C268.428 142.483 278.906 137.547 288.546 130.996C298.791 124.026 309.89 119.456 322.476 118.125C339.198 116.36 355.935 117.676 372.642 116.951C387.099 116.315 401.428 114.752 413.692 105.935C417.192 103.429 421.104 101.111 422.375 96.4744Z" fill="#00953D"/>
<path fill-rule="evenodd" clip-rule="evenodd" d="M38.7461 0V11.3301H106.009L49.3059 115.35L58.5718 122.043L126.291 0H38.7461Z" fill="#9F8A63"/>
<path fill-rule="evenodd" clip-rule="evenodd" d="M190.368 0H137.748L99.4805 69.005L108.335 73.38L143.477 11.3301H190.368V0Z" fill="#9F8A63"/>
<path d="M72.7749 317.84H79.1018L78.9448 359.212H72.6179L72.6927 341.098L54.0859 341.024L54.0186 359.129H47.6992L47.8637 317.735H54.1832L54.1159 335.534L72.7151 335.609L72.7749 317.84Z" fill="#9F8A63"/>
<path d="M88.5456 335.565V329.739C90.9686 328.353 94.1645 327.668 98.1331 327.683C106.275 327.718 110.331 331.684 110.301 339.581L110.226 359.347H104.243V355.668C102.638 358.28 99.8283 359.579 95.8147 359.564C93.2058 359.674 90.6595 358.746 88.7325 356.984C87.8594 356.151 87.1727 355.143 86.7177 354.025C86.2626 352.907 86.0496 351.706 86.0926 350.5C86.038 349.149 86.3205 347.806 86.9145 346.592C87.5086 345.378 88.3955 344.331 89.4953 343.545C91.7439 341.895 94.8974 341.077 98.9558 341.092H104.116V339.312C104.116 337.181 103.622 335.573 102.62 334.488C101.618 333.404 99.8981 332.851 97.5273 332.843C94.3259 332.814 91.192 333.764 88.5456 335.565V335.565ZM104.161 345.452H99.4942C97.2058 345.452 95.4707 345.893 94.3041 346.783C93.7561 347.172 93.3097 347.687 93.0026 348.284C92.6954 348.882 92.5364 349.544 92.5391 350.216C92.5049 350.843 92.6068 351.469 92.8379 352.053C93.069 352.636 93.4238 353.163 93.8778 353.596C94.9829 354.492 96.3848 354.937 97.804 354.845C98.6464 354.895 99.4904 354.778 100.287 354.501C101.084 354.224 101.819 353.792 102.448 353.23C103.014 352.68 103.458 352.016 103.751 351.283C104.043 350.55 104.178 349.763 104.146 348.974L104.161 345.452Z" fill="#9F8A63"/>
<path d="M124.49 328.31V333.769C126.016 329.935 128.745 328.023 132.679 328.033C133.317 328.042 133.952 328.105 134.579 328.22V334.113C133.643 333.724 132.638 333.53 131.625 333.545C130.603 333.536 129.595 333.782 128.692 334.261C127.79 334.741 127.022 335.438 126.457 336.29C125.076 338.194 124.354 340.497 124.4 342.848L124.341 359.421H118.32L118.44 328.295L124.49 328.31Z" fill="#9F8A63"/>
<path d="M187.87 336.014L187.795 355.839H187.713L187.773 356.266C184.198 358.828 179.731 360.102 174.371 360.087C167.89 360.057 162.689 358.133 158.771 354.314C154.852 350.495 152.905 345.317 152.93 338.781C152.93 332.439 154.944 327.301 158.973 323.367C163.001 319.434 168.074 317.479 174.192 317.504C178.978 317.504 182.984 318.439 186.21 320.309V326.815C182.69 324.589 178.603 323.423 174.438 323.457C170.021 323.457 166.444 324.856 163.707 327.653C160.969 330.45 159.588 334.159 159.563 338.781C159.563 343.532 160.887 347.271 163.535 349.999C166.182 352.726 169.871 354.112 174.603 354.157C177 354.175 179.378 353.726 181.603 352.833L181.648 341.413H173.242V335.946L187.87 336.014Z" fill="#9F8A63"/>
<path d="M202.251 316.3L202.184 333.919C203.959 330.075 207.18 328.163 211.846 328.183C213.193 328.127 214.536 328.351 215.792 328.842C217.047 329.332 218.186 330.078 219.138 331.033C220.973 332.927 221.883 335.55 221.868 338.9L221.793 359.773H215.772L215.847 340.127C215.97 338.333 215.394 336.561 214.239 335.183C213.698 334.601 213.038 334.142 212.304 333.837C211.57 333.532 210.778 333.39 209.984 333.418C208.968 333.416 207.961 333.62 207.025 334.017C206.09 334.414 205.244 334.997 204.54 335.729C202.959 337.28 202.161 339.65 202.146 342.841L202.087 359.721H196.066L196.231 316.345L202.251 316.3Z" fill="#9F8A63"/>
<path d="M230.721 336.11V330.277C233.134 328.901 236.328 328.218 240.301 328.228C248.443 328.258 252.501 332.224 252.476 340.126L252.402 359.892H246.419V356.205C244.818 358.823 242.011 360.121 237.998 360.101C236.706 360.16 235.416 359.962 234.2 359.521C232.985 359.079 231.869 358.402 230.916 357.529C230.043 356.695 229.356 355.687 228.9 354.569C228.444 353.452 228.229 352.251 228.268 351.045C228.214 349.694 228.497 348.352 229.091 347.137C229.685 345.923 230.572 344.876 231.671 344.09C233.929 342.439 237.085 341.622 241.139 341.637H246.292V339.857C246.292 337.723 245.793 336.115 244.796 335.033C243.799 333.951 242.104 333.403 239.71 333.388C236.506 333.352 233.368 334.303 230.721 336.11V336.11ZM246.336 345.997H241.67C239.371 345.997 237.641 346.44 236.48 347.328C235.93 347.715 235.483 348.23 235.176 348.828C234.868 349.425 234.71 350.089 234.715 350.761C234.679 351.387 234.78 352.015 235.011 352.598C235.243 353.182 235.598 353.709 236.053 354.141C237.16 355.034 238.561 355.477 239.98 355.382C240.82 355.434 241.663 355.318 242.459 355.042C243.255 354.766 243.988 354.335 244.616 353.775C245.183 353.223 245.627 352.558 245.921 351.824C246.215 351.09 246.351 350.302 246.322 349.512L246.336 345.997Z" fill="#9F8A63"/>
<path d="M266.665 328.818V334.285C268.191 330.441 270.918 328.529 274.847 328.549C275.487 328.554 276.125 328.616 276.754 328.736V334.629C275.841 334.245 274.858 334.054 273.867 334.068C272.846 334.061 271.839 334.308 270.936 334.787C270.034 335.266 269.266 335.962 268.7 336.813C267.321 338.718 266.601 341.021 266.65 343.372L266.591 359.944H260.57L260.69 328.818H266.665Z" fill="#9F8A63"/>
<path d="M321.699 318.782V324.062L310.833 324.017L310.691 360.116H304.371L304.506 324.017L293.707 323.972V318.692L321.699 318.782Z" fill="#9F8A63"/>
<path d="M327.864 322.208C327.513 321.86 327.236 321.443 327.053 320.984C326.869 320.525 326.781 320.033 326.794 319.538C326.786 319.039 326.877 318.542 327.063 318.079C327.249 317.615 327.527 317.193 327.879 316.839C328.224 316.48 328.641 316.197 329.102 316.009C329.563 315.821 330.058 315.732 330.556 315.747C331.059 315.74 331.557 315.834 332.022 316.024C332.488 316.214 332.91 316.495 333.264 316.852C333.618 317.209 333.896 317.633 334.082 318.1C334.269 318.566 334.359 319.066 334.348 319.568C334.351 320.06 334.254 320.547 334.063 321C333.871 321.452 333.589 321.861 333.233 322.201C332.881 322.558 332.459 322.839 331.993 323.027C331.527 323.215 331.028 323.305 330.526 323.293C330.031 323.306 329.539 323.217 329.081 323.03C328.623 322.843 328.208 322.563 327.864 322.208V322.208ZM327.378 360.177L327.497 329.059H333.577L333.458 360.177H327.378Z" fill="#9F8A63"/>
<path d="M348.306 329.132V334.599C349.832 330.755 352.559 328.841 356.488 328.856C357.128 328.867 357.765 328.932 358.395 329.05V334.943C357.482 334.558 356.499 334.367 355.508 334.382C354.487 334.375 353.481 334.621 352.579 335.099C351.677 335.577 350.907 336.271 350.34 337.119C348.961 339.027 348.242 341.332 348.291 343.686L348.231 360.258H342.211L342.331 329.132H348.306Z" fill="#9F8A63"/>
<path d="M363.811 336.619V330.793C366.229 329.412 369.422 328.726 373.391 328.736C381.532 328.771 385.588 332.737 385.558 340.635L385.484 360.401H379.501V356.714C377.89 359.331 375.083 360.633 371.08 360.618C368.47 360.73 365.923 359.802 363.998 358.038C363.125 357.204 362.438 356.195 361.982 355.078C361.526 353.961 361.31 352.76 361.35 351.554C361.297 350.203 361.58 348.861 362.174 347.647C362.768 346.433 363.654 345.385 364.753 344.599C367.011 342.948 370.165 342.131 374.213 342.146H379.373V340.366C379.373 338.232 378.875 336.624 377.878 335.542C376.881 334.46 375.185 333.912 372.792 333.897C369.591 333.867 366.457 334.817 363.811 336.619ZM379.426 346.506H374.759C372.463 346.506 370.736 346.947 369.562 347.837C369.013 348.224 368.567 348.739 368.261 349.337C367.955 349.935 367.798 350.598 367.804 351.269C367.768 351.896 367.87 352.523 368.101 353.107C368.332 353.691 368.688 354.217 369.143 354.65C370.245 355.545 371.645 355.988 373.062 355.891C373.904 355.945 374.748 355.83 375.545 355.554C376.343 355.278 377.077 354.846 377.706 354.283C378.272 353.733 378.716 353.069 379.01 352.336C379.303 351.604 379.44 350.817 379.411 350.028L379.426 346.506Z" fill="#9F8A63"/>
<path d="M399.747 329.335V334.675C401.602 330.831 404.843 328.919 409.469 328.939C412.54 328.939 414.974 329.888 416.768 331.788C418.563 333.688 419.453 336.25 419.438 339.476L419.356 360.528H413.373L413.448 340.889C413.448 338.721 412.912 337.06 411.84 335.909C411.283 335.33 410.61 334.876 409.865 334.577C409.12 334.278 408.32 334.14 407.517 334.174C406.481 334.164 405.456 334.38 404.511 334.804C403.566 335.229 402.724 335.853 402.043 336.634C400.547 338.284 399.782 340.605 399.747 343.597L399.627 360.468H393.645L393.764 329.342L399.747 329.335Z" fill="#9F8A63"/>
<path d="M447.751 329.515H453.734L453.622 358.001C453.622 362.787 452.248 366.394 449.501 368.822C446.754 371.25 443.264 372.454 439.031 372.434C435.544 372.53 432.083 371.824 428.912 370.37V364.29C431.752 366.084 435.06 366.995 438.418 366.908C444.515 366.908 447.576 363.916 447.601 357.933V354.74C446.708 356.318 445.395 357.619 443.809 358.498C442.223 359.377 440.424 359.8 438.612 359.721C436.924 359.732 435.252 359.388 433.706 358.71C432.159 358.032 430.773 357.036 429.638 355.787C427.145 353.184 425.898 349.507 425.898 344.756C425.898 340.174 427.08 336.402 429.443 333.441C430.528 332.018 431.936 330.875 433.552 330.108C435.168 329.34 436.944 328.97 438.732 329.028C442.865 329.028 445.856 330.801 447.706 334.346L447.751 329.515ZM439.741 354.59C440.79 354.596 441.828 354.38 442.787 353.956C443.746 353.532 444.604 352.91 445.305 352.13C446.881 350.475 447.676 348.154 447.691 345.167C447.691 341.488 446.943 338.763 445.447 336.993C444.805 336.168 443.983 335.499 443.043 335.039C442.104 334.579 441.072 334.339 440.026 334.338C438.912 334.295 437.805 334.531 436.806 335.025C435.807 335.519 434.947 336.254 434.304 337.165C432.943 339.065 432.263 341.57 432.263 344.681C432.263 347.912 433.011 350.37 434.506 352.055C435.141 352.834 435.939 353.464 436.843 353.902C437.747 354.34 438.737 354.575 439.741 354.59V354.59Z" fill="#9F8A63"/>
<path d="M462.58 337.001V331.168C464.996 329.784 468.197 329.103 472.16 329.118C480.302 329.148 484.361 333.112 484.336 341.009L484.261 360.783H478.278V357.096C476.678 359.713 473.871 361.012 469.857 360.992C468.565 361.05 467.275 360.853 466.06 360.412C464.844 359.97 463.728 359.293 462.775 358.42C461.901 357.585 461.214 356.575 460.758 355.457C460.301 354.338 460.087 353.136 460.127 351.928C460.074 350.579 460.357 349.237 460.951 348.024C461.545 346.812 462.431 345.766 463.53 344.981C465.789 343.33 468.945 342.513 472.998 342.528H478.151V340.748C478.151 338.616 477.657 337.008 476.655 335.916C475.653 334.825 473.94 334.279 471.57 334.271C468.365 334.243 465.228 335.195 462.58 337.001V337.001ZM478.196 346.88H473.529C471.241 346.88 469.506 347.314 468.339 348.211C467.79 348.599 467.342 349.113 467.035 349.711C466.728 350.309 466.569 350.972 466.574 351.644C466.539 352.271 466.64 352.898 466.871 353.481C467.103 354.065 467.458 354.592 467.913 355.024C469.019 355.917 470.421 356.36 471.839 356.266C472.679 356.315 473.522 356.199 474.317 355.923C475.113 355.647 475.846 355.217 476.476 354.658C477.042 354.106 477.487 353.442 477.78 352.707C478.074 351.973 478.21 351.185 478.181 350.395L478.196 346.88Z" fill="#9F8A63"/>
<path d="M0 390.301V383.854L10.0288 377.938H15.4956L15.3386 418.084H9.35572L9.48286 384.505L0 390.301Z" fill="#9F8A63"/>
<path d="M23.4099 385.604V379.77C25.9895 378.295 28.9194 377.543 31.8906 377.594C35.9789 377.594 39.1773 378.619 41.4856 380.668C42.5948 381.606 43.4796 382.781 44.0749 384.107C44.6703 385.432 44.961 386.874 44.9258 388.326C44.9678 390.377 44.4004 392.394 43.2955 394.122C42.112 395.839 40.4236 397.146 38.4643 397.861C40.5936 398.321 42.5108 399.473 43.9162 401.137C45.2569 402.85 45.946 404.983 45.8606 407.157C45.8957 408.701 45.5918 410.234 44.9703 411.647C44.3487 413.061 43.4248 414.321 42.2634 415.339C39.8852 417.478 36.5473 418.54 32.2496 418.525C28.7159 418.62 25.2083 417.893 22.0039 416.401V410.507C25.0524 412.159 28.4682 413.016 31.9355 412.998C34.3511 412.998 36.2506 412.415 37.6267 411.21C38.2932 410.64 38.8248 409.929 39.183 409.129C39.5413 408.328 39.7172 407.458 39.6983 406.581C39.7401 405.695 39.5561 404.813 39.1637 404.018C38.7713 403.223 38.1832 402.54 37.4547 402.034C35.959 400.965 33.6705 400.419 30.6417 400.411H28.1887V395.259H30.6641C32.6895 395.335 34.6846 394.749 36.3478 393.591C37.0886 393.075 37.6886 392.381 38.0935 391.574C38.4983 390.767 38.6952 389.872 38.6662 388.969C38.7283 388.137 38.5926 387.302 38.2702 386.533C37.9479 385.763 37.448 385.081 36.8115 384.542C35.3227 383.477 33.5164 382.95 31.6887 383.046C28.7416 383.092 25.869 383.979 23.4099 385.604V385.604Z" fill="#9F8A63"/>
<path d="M55.8483 382.395L55.8109 392.379C55.8109 394.124 56.6411 394.999 58.3013 395.004C59.1871 395.041 60.0594 394.777 60.7767 394.256V397.405C59.8808 397.856 58.8849 398.072 57.8825 398.033C54.1382 398.033 52.2711 396.131 52.281 392.327V382.41H49.4766V379.688H52.3483V375.253H55.8932V379.688H60.6571V382.402L55.8483 382.395Z" fill="#9F8A63"/>
<path d="M68.2346 372.561V382.836C69.2666 380.593 71.1438 379.478 73.866 379.493C74.6502 379.462 75.4324 379.593 76.1635 379.879C76.8945 380.165 77.5585 380.599 78.1138 381.153C78.6708 381.773 79.0985 382.498 79.3721 383.285C79.6456 384.072 79.7594 384.906 79.7068 385.738L79.6619 397.913H76.1544L76.1993 386.456C76.2704 385.411 75.9355 384.38 75.2645 383.577C74.9484 383.237 74.5632 382.969 74.1349 382.791C73.7066 382.613 73.2451 382.529 72.7816 382.544C72.1807 382.534 71.5842 382.647 71.0286 382.876C70.473 383.105 69.9701 383.445 69.5508 383.876C68.6335 384.783 68.1698 386.167 68.1598 388.026V397.868H64.6523L64.7496 372.561H68.2346Z" fill="#9F8A63"/>
<path d="M85.1055 404.592V399.432L100.063 399.491V404.652L85.1055 404.592Z" fill="#9F8A63"/>
<path d="M104.379 390.696V384.257L114.423 378.334H119.882L119.732 418.487H113.75L113.877 384.908L104.379 390.696Z" fill="#9F8A63"/>
<path d="M135.361 383.576L135.302 394.121C136.672 393.813 138.071 393.653 139.475 393.643C143.653 393.643 146.923 394.749 149.287 396.963C151.65 399.177 152.826 402.138 152.817 405.848C152.817 409.866 151.483 413.065 148.815 415.443C146.148 417.821 142.471 419.003 137.785 418.988C133.567 418.988 130.092 418.28 127.359 416.864V411.03C130.234 412.719 133.525 413.566 136.857 413.476C143.339 413.476 146.579 410.868 146.579 405.653C146.631 404.727 146.463 403.802 146.089 402.953C145.714 402.104 145.144 401.356 144.426 400.77C142.737 399.52 140.668 398.894 138.57 398.997C135.377 399.001 132.226 399.722 129.349 401.106L129.438 378.334L150.244 378.416V383.651L135.361 383.576Z" fill="#9F8A63"/>
<path d="M162.437 382.799V392.791C162.437 394.526 163.267 395.398 164.927 395.408C165.814 395.451 166.688 395.187 167.402 394.66V397.809C166.505 398.264 165.506 398.483 164.501 398.445C160.756 398.445 158.892 396.54 158.907 392.731L158.944 382.822H156.117V380.1H158.944V375.657H162.489V380.1H167.253V382.822L162.437 382.799Z" fill="#9F8A63"/>
<path d="M174.82 372.973V383.241C175.852 381.002 177.729 379.888 180.451 379.898C181.237 379.867 182.021 379.999 182.754 380.286C183.486 380.573 184.151 381.009 184.707 381.566C185.263 382.186 185.69 382.91 185.962 383.698C186.234 384.485 186.346 385.319 186.292 386.15L186.217 398.318H182.71L182.755 386.868C182.827 385.821 182.492 384.787 181.82 383.981C181.504 383.642 181.119 383.375 180.69 383.198C180.262 383.021 179.8 382.939 179.337 382.957C178.745 382.953 178.158 383.07 177.612 383.302C177.067 383.533 176.575 383.874 176.166 384.303C175.239 385.208 174.775 386.546 174.768 388.446L174.73 398.288H171.223L171.32 372.988L174.82 372.973Z" fill="#9F8A63"/>
<path d="M235.35 418.951L232.134 408.81L215.434 408.742L212.084 418.861H205.391L219.869 377.512H228.155L242.118 418.936L235.35 418.951ZM217.177 403.47L230.436 403.522L229.763 401.436C228.228 396.595 226.981 392.589 226.024 389.418C225.052 386.239 224.461 384.265 224.267 383.487L223.96 382.32C223.501 384.24 221.472 390.594 217.872 401.383L217.177 403.47Z" fill="#9F8A63"/>
<path d="M267.737 387.953H273.72L273.6 419.071H267.617V413.731C265.967 417.531 262.726 419.423 257.895 419.408C254.819 419.408 252.386 418.488 250.596 416.648C248.806 414.808 247.916 412.298 247.926 409.117L248.008 387.878H254.088L254.013 407.644C254.013 409.768 254.527 411.396 255.554 412.527C256.111 413.104 256.785 413.554 257.531 413.848C258.276 414.142 259.076 414.273 259.877 414.232C260.937 414.277 261.993 414.081 262.967 413.661C263.94 413.24 264.807 412.604 265.501 411.802C266.921 410.172 267.637 407.861 267.647 404.869L267.737 387.953Z" fill="#9F8A63"/>
<path d="M302.383 388.079H308.366L308.292 416.557C308.292 421.344 306.915 424.951 304.163 427.379C301.411 429.807 297.921 431.011 293.693 430.991C290.204 431.087 286.74 430.381 283.567 428.927V422.847C286.404 424.666 289.718 425.601 293.088 425.532C299.19 425.532 302.251 422.54 302.271 416.557V413.364C301.376 414.954 300.057 416.264 298.46 417.148C296.863 418.031 295.052 418.454 293.23 418.367C291.535 418.382 289.857 418.039 288.304 417.361C286.752 416.683 285.359 415.686 284.218 414.434C281.725 411.821 280.491 408.142 280.516 403.395C280.516 398.818 281.698 395.049 284.061 392.088C285.144 390.664 286.551 389.521 288.165 388.752C289.78 387.983 291.555 387.611 293.342 387.668C297.48 387.668 300.471 389.44 302.316 392.985L302.383 388.079ZM294.366 413.162C295.415 413.167 296.454 412.949 297.413 412.524C298.372 412.098 299.23 411.475 299.93 410.694C301.516 409.044 302.314 406.726 302.324 403.739C302.324 400.05 301.576 397.325 300.08 395.565C299.438 394.738 298.616 394.068 297.677 393.607C296.737 393.146 295.705 392.905 294.658 392.903C293.544 392.865 292.439 393.104 291.44 393.598C290.441 394.093 289.581 394.828 288.937 395.737C287.536 397.632 286.83 400.125 286.82 403.216C286.82 406.451 287.568 408.909 289.064 410.59C289.702 411.385 290.508 412.028 291.425 412.473C292.343 412.918 293.347 413.153 294.366 413.162V413.162Z" fill="#9F8A63"/>
<path d="M335.833 388.213H341.853L341.771 419.354H335.75V414.014C334.1 417.813 330.859 419.705 326.028 419.691C322.962 419.691 320.531 418.771 318.736 416.931C316.942 415.091 316.052 412.581 316.067 409.4L316.141 388.153H322.221L322.147 407.919C322.147 410.043 322.663 411.671 323.695 412.803C324.252 413.379 324.926 413.83 325.671 414.124C326.417 414.418 327.217 414.549 328.017 414.508C329.077 414.552 330.133 414.356 331.107 413.935C332.081 413.514 332.947 412.879 333.641 412.077C335.062 410.44 335.773 408.136 335.788 405.145L335.833 388.213Z" fill="#9F8A63"/>
<path d="M368.059 389.38V394.84C365.693 393.555 363.025 392.93 360.334 393.03C359.12 392.959 357.918 393.302 356.923 394.002C356.521 394.298 356.196 394.686 355.974 395.133C355.753 395.581 355.643 396.075 355.652 396.575C355.652 396.854 355.682 397.132 355.742 397.405C355.81 397.688 355.924 397.958 356.078 398.205C356.243 398.467 356.392 398.691 356.535 398.878C356.734 399.111 356.972 399.309 357.238 399.461C357.496 399.626 357.745 399.803 357.985 399.992C358.274 400.197 358.582 400.372 358.905 400.516L359.855 400.979C360.057 401.084 360.416 401.249 360.925 401.473C361.433 401.697 361.792 401.855 361.994 401.937C364.079 402.802 365.998 404.024 367.663 405.549C368.351 406.247 368.887 407.079 369.237 407.994C369.587 408.91 369.744 409.887 369.697 410.866C369.749 412.113 369.505 413.355 368.985 414.49C368.465 415.625 367.684 416.62 366.705 417.395C364.711 418.966 362.046 419.743 358.711 419.728C355.541 419.824 352.391 419.181 349.512 417.851V412.145C352.165 413.857 355.248 414.782 358.404 414.815C359.722 414.905 361.034 414.567 362.144 413.85C362.56 413.564 362.899 413.179 363.131 412.73C363.363 412.282 363.481 411.783 363.475 411.278C363.473 410.823 363.38 410.374 363.201 409.957C363.023 409.539 362.762 409.162 362.435 408.847C361.832 408.192 361.118 407.647 360.326 407.239C359.578 406.895 358.397 406.342 356.684 405.601C351.813 403.582 349.388 400.626 349.407 396.732C349.362 395.489 349.62 394.253 350.16 393.133C350.699 392.012 351.504 391.04 352.504 390.3C354.734 388.695 357.438 387.884 360.184 387.997C363.559 388.012 366.184 388.473 368.059 389.38Z" fill="#9F8A63"/>
<path d="M383.824 393.06L383.757 410.186C383.757 413.177 385.17 414.673 388.034 414.673C389.561 414.722 391.059 414.25 392.282 413.335V418.734C390.74 419.511 389.027 419.887 387.302 419.826C380.88 419.806 377.669 416.545 377.669 410.044L377.729 393.038H372.883V388.371H377.736V380.758H383.809V388.371H391.976V393.038L383.824 393.06Z" fill="#9F8A63"/>
<path d="M420.298 414.441L437.731 414.508V419.743L412.012 419.646V414.672C416.789 411.284 421.178 407.379 425.099 403.028C428.654 399.015 430.439 395.35 430.454 392.035C430.454 389.701 429.783 387.907 428.442 386.65C426.896 385.324 424.897 384.646 422.863 384.758C419.595 384.758 416.372 385.962 413.216 388.408V382.425C416.242 380.158 419.944 378.98 423.723 379.082C427.108 378.977 430.413 380.118 433.012 382.29C435.465 384.404 436.681 387.396 436.661 391.264C436.656 398.494 431.202 406.219 420.298 414.441Z" fill="#9F8A63"/>
<path d="M442.794 399.544C442.794 393.247 444.07 388.261 446.623 384.587C447.726 382.849 449.261 381.428 451.078 380.462C452.895 379.496 454.931 379.018 456.988 379.075C459.065 379.022 461.12 379.506 462.955 380.481C464.789 381.456 466.34 382.888 467.458 384.639C469.986 388.333 471.232 393.351 471.198 399.693C471.198 405.95 469.951 410.959 467.458 414.718C466.34 416.505 464.77 417.964 462.906 418.949C461.043 419.934 458.952 420.409 456.846 420.327C454.778 420.364 452.737 419.858 450.926 418.86C449.115 417.861 447.597 416.404 446.526 414.636C443.998 410.841 442.754 405.811 442.794 399.544ZM451.245 388.498C449.719 391.095 448.949 394.787 448.934 399.574C448.919 404.36 449.652 408.077 451.133 410.724C452.628 413.362 454.535 414.688 456.854 414.703C459.386 414.703 461.381 413.402 462.837 410.799C464.292 408.196 465.023 404.475 465.028 399.633C465.028 394.767 464.297 391.051 462.837 388.483C461.376 385.915 459.411 384.629 456.943 384.624C454.67 384.619 452.77 385.91 451.245 388.498Z" fill="#9F8A63"/>
<path d="M484.169 414.688L501.602 414.748V419.983L475.883 419.886V414.912C480.655 411.518 485.044 407.613 488.97 403.268C492.545 399.245 494.332 395.573 494.332 392.252C494.332 389.919 493.667 388.131 492.321 386.875C490.774 385.549 488.776 384.871 486.742 384.983C483.474 384.983 480.25 386.187 477.094 388.625V382.642C480.112 380.388 483.799 379.214 487.564 379.307C490.958 379.192 494.276 380.331 496.883 382.508C499.336 384.626 500.552 387.618 500.532 391.482C500.537 398.726 495.083 406.461 484.169 414.688Z" fill="#9F8A63"/>
<path d="M514.618 414.8L532.051 414.868V420.103L506.324 420.005V415.032C511.098 411.64 515.487 407.735 519.412 403.388C522.972 399.374 524.756 395.707 524.766 392.387C524.766 390.054 524.098 388.261 522.762 387.01C521.215 385.684 519.218 385.004 517.183 385.11C513.907 385.11 510.689 386.327 507.528 388.76V382.777C510.557 380.512 514.262 379.336 518.043 379.442C521.436 379.327 524.752 380.463 527.361 382.635C529.804 384.749 531.021 387.753 531.011 391.647C530.991 398.861 525.527 406.579 514.618 414.8Z" fill="#9F8A63"/>
<path d="M40.9844 301.784H491.143" stroke="#9F8A63" stroke-width="1.84" stroke-miterlimit="10"/>
</svg>
